<svg xmlns="http://www.w3.org/2000/svg" id="canvas" style="position: fixed; top: 40px; left: 40px; user-select: none; touch-action: none;" height="493.2508544921875" width="419.3587951660156" viewBox="439.3166809082031 211.75 419.3587951660156 493.2508544921875" tabindex="0"><path id="line_M25VtiBkEK" d="M 505 475 L 580 400" fill="none" stroke="#649bbb" stroke-width="5" stroke-linecap="round" cursor="pointer"></path><path id="line_7UjWvzydUz" d="M 508.5355339059327 478.5355339059327 L 583.5355339059328 403.5355339059327" fill="none" stroke="#3a8557" stroke-width="5" stroke-linecap="round" cursor="pointer"></path><path id="line_47IN2cENzK" d="M 512.0710678118654 482.0710678118655 L 587.0710678118654 407.0710678118655" fill="none" stroke="#85308a" stroke-width="5" stroke-linecap="round" cursor="pointer"></path><path id="line_HZ-nr88imK" d="M 594.142135623731 414.14213562373095 L 619.142135623731 389.14213562373095" fill="none" stroke="#d38b37" stroke-width="5" stroke-linecap="round" cursor="pointer"></path><path id="line_Ul4sjwGwXJ" d="M 619.142135623731 389.14213562373095 L 644.142135623731 364.14213562373095" fill="none" stroke="#d38b37" stroke-width="5" stroke-linecap="round" cursor="pointer"></path><path id="line_BeuElgIdkf" d="M 644.142135623731 364.14213562373095 L 669.142135623731 339.14213562373095" fill="none" stroke="#d38b37" stroke-width="5" stroke-linecap="round" cursor="pointer"></path><path id="line_kP6LHGCSai" d="M 669.142135623731 339.14213562373095 L 694.142135623731 314.14213562373095" fill="none" stroke="#d38b37" stroke-width="5" stroke-linecap="round" cursor="pointer"></path><path id="line_0Ta_otlz2J" d="M 590.6066017177982 410.6066017177982 L 615.6066017177982 385.6066017177982" fill="none" stroke="#1f4d7a" stroke-width="5" stroke-linecap="round" cursor="pointer"></path><path id="line_igFxMEWNkr" d="M 615.6066017177982 385.6066017177982 L 640.6066017177982 360.6066017177982" fill="none" stroke="#1f4d7a" stroke-width="5" stroke-linecap="round" cursor="pointer"></path><path id="line__32StL3hVB" d="M 640.6066017177982 360.6066017177982 L 665.6066017177982 335.6066017177982" fill="none" stroke="#1f4d7a" stroke-width="5" stroke-linecap="round" cursor="pointer"></path><path id="line_nS4BMOzBQi" d="M 665.6066017177982 335.6066017177982 L 690.6066017177982 310.6066017177982" fill="none" stroke="#1f4d7a" stroke-width="5" stroke-linecap="round" cursor="pointer"></path><path id="line_7OhEfp5xWG" d="M 587.0710678118654 407.0710678118655 L 612.0710678118654 382.0710678118655" fill="none" stroke="#85308a" stroke-width="5" stroke-linecap="round" cursor="pointer"></path><path id="line_v5uTRnuUBN" d="M 612.0710678118654 382.0710678118655 L 637.0710678118654 357.0710678118655" fill="none" stroke="#85308a" stroke-width="5" stroke-linecap="round" cursor="pointer"></path><path id="line_oBBAFDgwGG" d="M 637.0710678118654 357.0710678118655 L 662.0710678118654 332.0710678118655" fill="none" stroke="#85308a" stroke-width="5" stroke-linecap="round" cursor="pointer"></path><path id="line_IVYDHe9MDQ" d="M 662.0710678118654 332.0710678118655 L 687.0710678118654 307.0710678118655" fill="none" stroke="#85308a" stroke-width="5" stroke-linecap="round" cursor="pointer"></path><path id="line_tq5gsiOBLt" d="M 583.5355339059328 403.5355339059327 L 608.5355339059328 378.5355339059327" fill="none" stroke="#3a8557" stroke-width="5" stroke-linecap="round" cursor="pointer"></path><path id="line_UjMHL2bSvF" d="M 608.5355339059328 378.5355339059327 L 633.5355339059328 353.5355339059327" fill="none" stroke="#3a8557" stroke-width="5" stroke-linecap="round" cursor="pointer"></path><path id="line_6MZriPus1c" d="M 633.5355339059328 353.5355339059327 L 658.5355339059328 328.5355339059327" fill="none" stroke="#3a8557" stroke-width="5" stroke-linecap="round" cursor="pointer"></path><path id="line_SMvIp3Vzij" d="M 658.5355339059328 328.5355339059327 L 683.5355339059328 303.5355339059327" fill="none" stroke="#3a8557" stroke-width="5" stroke-linecap="round" cursor="pointer"></path><path id="line_bxKljidv1b" d="M 580 400 L 605 375" fill="none" stroke="#649bbb" stroke-width="5" stroke-linecap="round" cursor="pointer"></path><path id="line_P8xBM4WRY-" d="M 605 375 L 630 350" fill="none" stroke="#649bbb" stroke-width="5" stroke-linecap="round" cursor="pointer"></path><path id="line_7cwxeBeJ-2" d="M 630 350 L 655 325" fill="none" stroke="#649bbb" stroke-width="5" stroke-linecap="round" cursor="pointer"></path><path id="line_4Qs6_-IQ2V" d="M 655 325 L 680 300" fill="none" stroke="#649bbb" stroke-width="5" stroke-linecap="round" cursor="pointer"></path><path id="line_F3fZDk06DV" d="M 620 295 L 620 325" fill="none" stroke="#c02f49" stroke-width="5" stroke-linecap="round" cursor="pointer"></path><path id="line_aF9RVUWx0U" d="M 525 515 L 525 490" fill="none" stroke="#d38b37" stroke-width="5" stroke-linecap="round" cursor="pointer"></path><path id="line_wumZMrz_yh" d="M 525 550 L 525 515" fill="none" stroke="#d38b37" stroke-width="5" stroke-linecap="round" cursor="pointer"></path><path id="line_gEiGUx2lRG" d="M 525 600 L 525 575" fill="none" stroke="#d38b37" stroke-width="5" stroke-linecap="round" cursor="pointer"></path><path id="line_udE3jfhxna" d="M 525 575 L 525 550" fill="none" stroke="#d38b37" stroke-width="5" stroke-linecap="round" cursor="pointer"></path><path id="line_HjNdojqEtB" d="M 540 420 L 581.2132034355964 420 L 590.6066017177982 410.6066017177982" fill="none" stroke="#1f4d7a" stroke-width="5" stroke-linecap="round" cursor="pointer"></path><path id="line_2eeuLD0XuV" d="M 540 425 L 583.2842712474619 425 L 594.142135623731 414.14213562373095" fill="none" stroke="#d38b37" stroke-width="5" stroke-linecap="round" cursor="pointer"></path><path id="line_lmdwBsxGiM" d="M 540 425 L 525 425 L 525 490" fill="none" stroke="#d38b37" stroke-width="5" stroke-linecap="round" cursor="pointer"></path><path id="line_SIWqy0vfJA" d="M 525 490 L 520 490 L 505 475" fill="none" stroke="black" stroke-width="1.5" stroke-linecap="round" cursor="pointer"></path><path id="line_iR2ejd-kV6" d="M 620 325 L 620 340 L 630 350" fill="none" stroke="#c02f49" stroke-width="5" stroke-linecap="round" cursor="pointer"></path><g id="stn_SE1n4m93_A" transform="translate(540, 420)"><path transform="rotate(90)" d="M -5,0 A 5,5,0,0,1,-2.5,-4.330127018922194 A 5,5,0,0,1,2.5,-4.330127018922194 A 5,5,0,0,1,7.5,-4.330127018922194 A 5,5,0,0,1,2.5,4.330127018922194 A 5,5,0,0,1,2.5,4.330127018922194 A 5,5,0,0,1,-2.5,4.330127018922194 A 5,5,0,0,1,-5,0 Z" stroke="#001f50" stroke-width="1.5" fill="white" style="cursor: move;"></path><g transform="translate(0, -14.5)" text-anchor="middle" stroke-width="1.25" paint-order="stroke" stroke="rgb(255, 255, 255)" stroke-linejoin="round"><g><text dy="-1" dx="0" dominant-baseline="auto" font-size="10" fill="#001f50" font-family="GenYoMinTW-SB, HiraMinProN-W6, Vegur-Bold, Helvetica, serif" style="font-synthesis: none;">Station</text></g><g><text dy="1" dx="0" dominant-baseline="hanging" font-size="7.5" fill="#001f50" font-family="MyriadPro-Semibold, Vegur-Bold, Helvetica, sans-serif">Stn</text></g></g></g><g id="stn_JyPjocm2nL" transform="translate(580, 400)"><path transform="rotate(45)" d="M -5,0 A 5,5,0,0,1,-2.5,-4.330127018922194 A 5,5,0,0,1,2.5,-4.330127018922194 A 5,5,0,0,1,7.5,-4.330127018922194 A 5,5,0,0,1,12.5,-4.330127018922194 A 5,5,0,0,1,17.5,-4.330127018922194 A 5,5,0,0,1,22.5,-4.330127018922194 A 5,5,0,0,1,22.5,4.330127018922194 A 5,5,0,0,1,17.5,4.330127018922194 A 5,5,0,0,1,12.5,4.330127018922194 A 5,5,0,0,1,7.5,4.330127018922194 A 5,5,0,0,1,2.5,4.330127018922194 A 5,5,0,0,1,-2.5,4.330127018922194 A 5,5,0,0,1,-5,0 Z" stroke="#001f50" stroke-width="1.5" fill="white" style="cursor: move;"></path><line transform="rotate(45)" x1="-2.5" x2="2.5" stroke="#649bbb" stroke-width="2"></line><line transform="rotate(45)" x1="2.5" x2="7.5" stroke="#3a8557" stroke-width="2"></line><line transform="rotate(45)" x1="7.5" x2="12.5" stroke="#85308a" stroke-width="2"></line><line transform="rotate(45)" x1="12.5" x2="17.5" stroke="#1f4d7a" stroke-width="2"></line><line transform="rotate(45)" x1="17.5" x2="22.5" stroke="#d38b37" stroke-width="2"></line><g transform="translate(22.14213562373095, 42.14213562373095)" text-anchor="start" stroke-width="1.25" paint-order="stroke" stroke="rgb(255, 255, 255)" stroke-linejoin="round"><g><text dy="-1" dx="0" dominant-baseline="auto" font-size="10" fill="#001f50" font-family="GenYoMinTW-SB, HiraMinProN-W6, Vegur-Bold, Helvetica, serif" style="font-synthesis: none;">Ness</text><text dy="-11" dx="0" dominant-baseline="auto" font-size="10" fill="#001f50" font-family="GenYoMinTW-SB, HiraMinProN-W6, Vegur-Bold, Helvetica, serif" style="font-synthesis: none;">Van </text></g><g><text dy="1" dx="0" dominant-baseline="hanging" font-size="7.5" fill="#001f50" font-family="MyriadPro-Semibold, Vegur-Bold, Helvetica, sans-serif"></text></g></g></g><g id="stn_XSEo_hiiuD" transform="translate(505, 475)"><path transform="rotate(45)" d="M -5,0 A 5,5,0,0,1,-2.5,-4.330127018922194 A 5,5,0,0,1,2.5,-4.330127018922194 A 5,5,0,0,1,7.5,-4.330127018922194 A 5,5,0,0,1,12.5,-4.330127018922194 A 5,5,0,0,1,12.5,4.330127018922194 A 5,5,0,0,1,7.5,4.330127018922194 A 5,5,0,0,1,2.5,4.330127018922194 A 5,5,0,0,1,-2.5,4.330127018922194 A 5,5,0,0,1,-5,0 Z" stroke="#001f50" stroke-width="1.5" fill="white" style="cursor: move;"></path><line transform="rotate(45)" x1="-2.5" x2="2.5" stroke="#aaaaaa" stroke-width="2"></line><line transform="rotate(45)" x1="2.5" x2="7.5" stroke="#aaaaaa" stroke-width="2"></line><line transform="rotate(45)" x1="7.5" x2="12.5" stroke="#aaaaaa" stroke-width="2"></line><g transform="translate(0, -14.5)" text-anchor="middle" stroke-width="1.25" paint-order="stroke" stroke="rgb(255, 255, 255)" stroke-linejoin="round"><g><text dy="-1" dx="0" dominant-baseline="auto" font-size="10" fill="#001f50" font-family="GenYoMinTW-SB, HiraMinProN-W6, Vegur-Bold, Helvetica, serif" style="font-synthesis: none;">Church</text></g><g><text dy="1" dx="0" dominant-baseline="hanging" font-size="7.5" fill="#001f50" font-family="MyriadPro-Semibold, Vegur-Bold, Helvetica, sans-serif">Stn</text></g></g></g><g id="stn_42Nz9uzHMk" transform="translate(525, 490)"><path transform="rotate(0)" d="M -5,0 A 5,5,0,0,1,-2.5,-4.330127018922194 A 5,5,0,0,1,2.5,-4.330127018922194 A 5,5,0,0,1,-2.5,4.330127018922194 A 5,5,0,0,1,-2.5,4.330127018922194 A 5,5,0,0,1,-5,0 Z" stroke="#001f50" stroke-width="1.5" fill="white" style="cursor: move;"></path><g transform="translate(8, 0)" text-anchor="start" stroke-width="1.25" paint-order="stroke" stroke="rgb(255, 255, 255)" stroke-linejoin="round"><g><text dy="-1" dx="0" dominant-baseline="auto" font-size="10" fill="#001f50" font-family="GenYoMinTW-SB, HiraMinProN-W6, Vegur-Bold, Helvetica, serif" style="font-synthesis: none;">&amp; Market</text><text dy="-11" dx="0" dominant-baseline="auto" font-size="10" fill="#001f50" font-family="GenYoMinTW-SB, HiraMinProN-W6, Vegur-Bold, Helvetica, serif" style="font-synthesis: none;">Church</text></g><g><text dy="1" dx="0" dominant-baseline="hanging" font-size="7.5" fill="#001f50" font-family="MyriadPro-Semibold, Vegur-Bold, Helvetica, sans-serif">Stn</text></g></g></g><g id="stn_ZTb0tIEZhZ" transform="translate(605, 375)"><path transform="rotate(45)" d="M -5,0 A 5,5,0,0,1,-2.5,-4.330127018922194 A 5,5,0,0,1,2.5,-4.330127018922194 A 5,5,0,0,1,7.5,-4.330127018922194 A 5,5,0,0,1,12.5,-4.330127018922194 A 5,5,0,0,1,17.5,-4.330127018922194 A 5,5,0,0,1,22.5,-4.330127018922194 A 5,5,0,0,1,22.5,4.330127018922194 A 5,5,0,0,1,17.5,4.330127018922194 A 5,5,0,0,1,12.5,4.330127018922194 A 5,5,0,0,1,7.5,4.330127018922194 A 5,5,0,0,1,2.5,4.330127018922194 A 5,5,0,0,1,-2.5,4.330127018922194 A 5,5,0,0,1,-5,0 Z" stroke="#001f50" stroke-width="1.5" fill="white" style="cursor: move;"></path><line transform="rotate(45)" x1="-2.5" x2="2.5" stroke="#649bbb" stroke-width="2"></line><line transform="rotate(45)" x1="2.5" x2="7.5" stroke="#3a8557" stroke-width="2"></line><line transform="rotate(45)" x1="7.5" x2="12.5" stroke="#85308a" stroke-width="2"></line><line transform="rotate(45)" x1="12.5" x2="17.5" stroke="#1f4d7a" stroke-width="2"></line><line transform="rotate(45)" x1="17.5" x2="22.5" stroke="#d38b37" stroke-width="2"></line><g transform="translate(22.14213562373095, 42.14213562373095)" text-anchor="start" stroke-width="1.25" paint-order="stroke" stroke="rgb(255, 255, 255)" stroke-linejoin="round"><g><text dy="-1" dx="0" dominant-baseline="auto" font-size="10" fill="#001f50" font-family="GenYoMinTW-SB, HiraMinProN-W6, Vegur-Bold, Helvetica, serif" style="font-synthesis: none;">Center</text><text dy="-11" dx="0" dominant-baseline="auto" font-size="10" fill="#001f50" font-family="GenYoMinTW-SB, HiraMinProN-W6, Vegur-Bold, Helvetica, serif" style="font-synthesis: none;">Civic</text></g><g><text dy="1" dx="0" dominant-baseline="hanging" font-size="7.5" fill="#001f50" font-family="MyriadPro-Semibold, Vegur-Bold, Helvetica, sans-serif"></text></g></g></g><g id="stn_6oR6X1ynFs" transform="translate(630, 350)"><path transform="rotate(45)" d="M -5,0 A 5,5,0,0,1,-2.5,-4.330127018922194 A 5,5,0,0,1,2.5,-4.330127018922194 A 5,5,0,0,1,7.5,-4.330127018922194 A 5,5,0,0,1,12.5,-4.330127018922194 A 5,5,0,0,1,17.5,-4.330127018922194 A 5,5,0,0,1,22.5,-4.330127018922194 A 5,5,0,0,1,22.5,4.330127018922194 A 5,5,0,0,1,17.5,4.330127018922194 A 5,5,0,0,1,12.5,4.330127018922194 A 5,5,0,0,1,7.5,4.330127018922194 A 5,5,0,0,1,2.5,4.330127018922194 A 5,5,0,0,1,-2.5,4.330127018922194 A 5,5,0,0,1,-5,0 Z" stroke="#001f50" stroke-width="1.5" fill="white" style="cursor: move;"></path><line transform="rotate(45)" x1="-2.5" x2="2.5" stroke="#649bbb" stroke-width="2"></line><line transform="rotate(45)" x1="2.5" x2="7.5" stroke="#3a8557" stroke-width="2"></line><line transform="rotate(45)" x1="7.5" x2="12.5" stroke="#85308a" stroke-width="2"></line><line transform="rotate(45)" x1="12.5" x2="17.5" stroke="#1f4d7a" stroke-width="2"></line><line transform="rotate(45)" x1="17.5" x2="22.5" stroke="#d38b37" stroke-width="2"></line><g transform="translate(22.14213562373095, 31.14213562373095)" text-anchor="start" stroke-width="1.25" paint-order="stroke" stroke="rgb(255, 255, 255)" stroke-linejoin="round"><g><text dy="-1" dx="0" dominant-baseline="auto" font-size="10" fill="#001f50" font-family="GenYoMinTW-SB, HiraMinProN-W6, Vegur-Bold, Helvetica, serif" style="font-synthesis: none;">Powell</text></g><g><text dy="1" dx="0" dominant-baseline="hanging" font-size="7.5" fill="#001f50" font-family="MyriadPro-Semibold, Vegur-Bold, Helvetica, sans-serif"></text></g></g></g><g id="stn_pugr3fXs2V" transform="translate(655, 325)"><path transform="rotate(45)" d="M -5,0 A 5,5,0,0,1,-2.5,-4.330127018922194 A 5,5,0,0,1,2.5,-4.330127018922194 A 5,5,0,0,1,7.5,-4.330127018922194 A 5,5,0,0,1,12.5,-4.330127018922194 A 5,5,0,0,1,17.5,-4.330127018922194 A 5,5,0,0,1,22.5,-4.330127018922194 A 5,5,0,0,1,22.5,4.330127018922194 A 5,5,0,0,1,17.5,4.330127018922194 A 5,5,0,0,1,12.5,4.330127018922194 A 5,5,0,0,1,7.5,4.330127018922194 A 5,5,0,0,1,2.5,4.330127018922194 A 5,5,0,0,1,-2.5,4.330127018922194 A 5,5,0,0,1,-5,0 Z" stroke="#001f50" stroke-width="1.5" fill="white" style="cursor: move;"></path><line transform="rotate(45)" x1="-2.5" x2="2.5" stroke="#649bbb" stroke-width="2"></line><line transform="rotate(45)" x1="2.5" x2="7.5" stroke="#3a8557" stroke-width="2"></line><line transform="rotate(45)" x1="7.5" x2="12.5" stroke="#85308a" stroke-width="2"></line><line transform="rotate(45)" x1="12.5" x2="17.5" stroke="#1f4d7a" stroke-width="2"></line><line transform="rotate(45)" x1="17.5" x2="22.5" stroke="#d38b37" stroke-width="2"></line><g transform="translate(22.14213562373095, 42.14213562373095)" text-anchor="start" stroke-width="1.25" paint-order="stroke" stroke="rgb(255, 255, 255)" stroke-linejoin="round"><g><text dy="-1" dx="0" dominant-baseline="auto" font-size="10" fill="#001f50" font-family="GenYoMinTW-SB, HiraMinProN-W6, Vegur-Bold, Helvetica, serif" style="font-synthesis: none;">St</text><text dy="-11" dx="0" dominant-baseline="auto" font-size="10" fill="#001f50" font-family="GenYoMinTW-SB, HiraMinProN-W6, Vegur-Bold, Helvetica, serif" style="font-synthesis: none;">Montgomery</text></g><g><text dy="1" dx="0" dominant-baseline="hanging" font-size="7.5" fill="#001f50" font-family="MyriadPro-Semibold, Vegur-Bold, Helvetica, sans-serif"></text></g></g></g><g id="stn_y-A8vsKF26" transform="translate(680, 300)"><path transform="rotate(45)" d="M -5,0 A 5,5,0,0,1,-2.5,-4.330127018922194 A 5,5,0,0,1,2.5,-4.330127018922194 A 5,5,0,0,1,7.5,-4.330127018922194 A 5,5,0,0,1,12.5,-4.330127018922194 A 5,5,0,0,1,17.5,-4.330127018922194 A 5,5,0,0,1,22.5,-4.330127018922194 A 5,5,0,0,1,22.5,4.330127018922194 A 5,5,0,0,1,17.5,4.330127018922194 A 5,5,0,0,1,12.5,4.330127018922194 A 5,5,0,0,1,7.5,4.330127018922194 A 5,5,0,0,1,2.5,4.330127018922194 A 5,5,0,0,1,-2.5,4.330127018922194 A 5,5,0,0,1,-5,0 Z" stroke="#001f50" stroke-width="1.5" fill="white" style="cursor: move;"></path><line transform="rotate(45)" x1="-2.5" x2="2.5" stroke="#649bbb" stroke-width="2"></line><line transform="rotate(45)" x1="2.5" x2="7.5" stroke="#3a8557" stroke-width="2"></line><line transform="rotate(45)" x1="7.5" x2="12.5" stroke="#85308a" stroke-width="2"></line><line transform="rotate(45)" x1="12.5" x2="17.5" stroke="#1f4d7a" stroke-width="2"></line><line transform="rotate(45)" x1="17.5" x2="22.5" stroke="#d38b37" stroke-width="2"></line><g transform="translate(22.14213562373095, 31.14213562373095)" text-anchor="start" stroke-width="1.25" paint-order="stroke" stroke="rgb(255, 255, 255)" stroke-linejoin="round"><g><text dy="-1" dx="0" dominant-baseline="auto" font-size="10" fill="#001f50" font-family="GenYoMinTW-SB, HiraMinProN-W6, Vegur-Bold, Helvetica, serif" style="font-synthesis: none;">Embarcadero</text></g><g><text dy="1" dx="0" dominant-baseline="hanging" font-size="7.5" fill="#001f50" font-family="MyriadPro-Semibold, Vegur-Bold, Helvetica, sans-serif"></text></g></g></g><g id="stn_h24BUXszlK" transform="translate(620, 325)"><path transform="rotate(0)" d="M -5,0 A 5,5,0,0,1,-2.5,-4.330127018922194 A 5,5,0,0,1,2.5,-4.330127018922194 A 5,5,0,0,1,-2.5,4.330127018922194 A 5,5,0,0,1,-2.5,4.330127018922194 A 5,5,0,0,1,-5,0 Z" stroke="#001f50" stroke-width="1.5" fill="white" style="cursor: move;"></path><g transform="translate(-8, 0)" text-anchor="end" stroke-width="1.25" paint-order="stroke" stroke="rgb(255, 255, 255)" stroke-linejoin="round"><g><text dy="-1" dx="0" dominant-baseline="auto" font-size="10" fill="#001f50" font-family="GenYoMinTW-SB, HiraMinProN-W6, Vegur-Bold, Helvetica, serif" style="font-synthesis: none;">Market St</text><text dy="-11" dx="0" dominant-baseline="auto" font-size="10" fill="#001f50" font-family="GenYoMinTW-SB, HiraMinProN-W6, Vegur-Bold, Helvetica, serif" style="font-synthesis: none;">Union Sq/</text></g><g><text dy="1" dx="0" dominant-baseline="hanging" font-size="7.5" fill="#001f50" font-family="MyriadPro-Semibold, Vegur-Bold, Helvetica, sans-serif">Stn</text></g></g></g><g id="stn_Wxg24s-y-H" transform="translate(620, 295)"><path transform="rotate(0)" d="M -5,0 A 5,5,0,0,1,-2.5,-4.330127018922194 A 5,5,0,0,1,2.5,-4.330127018922194 A 5,5,0,0,1,-2.5,4.330127018922194 A 5,5,0,0,1,-2.5,4.330127018922194 A 5,5,0,0,1,-5,0 Z" stroke="#001f50" stroke-width="1.5" fill="white" style="cursor: move;"></path><g transform="translate(0, -14.5)" text-anchor="middle" stroke-width="1.25" paint-order="stroke" stroke="rgb(255, 255, 255)" stroke-linejoin="round"><g><text dy="-1" dx="0" dominant-baseline="auto" font-size="10" fill="#001f50" font-family="GenYoMinTW-SB, HiraMinProN-W6, Vegur-Bold, Helvetica, serif" style="font-synthesis: none;">Rose Pak</text><text dy="-11" dx="0" dominant-baseline="auto" font-size="10" fill="#001f50" font-family="GenYoMinTW-SB, HiraMinProN-W6, Vegur-Bold, Helvetica, serif" style="font-synthesis: none;">Chinatown -</text></g><g><text dy="1" dx="0" dominant-baseline="hanging" font-size="7.5" fill="#001f50" font-family="MyriadPro-Semibold, Vegur-Bold, Helvetica, sans-serif">Stn</text></g></g></g><g id="stn_DFYTqz0P1E" transform="translate(525, 515)"><path transform="rotate(0)" d="M -5,0 A 5,5,0,0,1,-2.5,-4.330127018922194 A 5,5,0,0,1,2.5,-4.330127018922194 A 5,5,0,0,1,-2.5,4.330127018922194 A 5,5,0,0,1,-2.5,4.330127018922194 A 5,5,0,0,1,-5,0 Z" stroke="#001f50" stroke-width="1.5" fill="white" style="cursor: move;"></path><g transform="translate(8, 0)" text-anchor="start" stroke-width="1.25" paint-order="stroke" stroke="rgb(255, 255, 255)" stroke-linejoin="round"><g><text dy="-1" dx="0" dominant-baseline="auto" font-size="10" fill="#001f50" font-family="GenYoMinTW-SB, HiraMinProN-W6, Vegur-Bold, Helvetica, serif" style="font-synthesis: none;">16th</text></g><g><text dy="1" dx="0" dominant-baseline="hanging" font-size="7.5" fill="#001f50" font-family="MyriadPro-Semibold, Vegur-Bold, Helvetica, sans-serif">&amp; Church</text></g></g></g><g id="stn_Lq5zYV_nri" transform="translate(525, 600)"><path transform="rotate(0)" d="M -5,0 A 5,5,0,0,1,-2.5,-4.330127018922194 A 5,5,0,0,1,2.5,-4.330127018922194 A 5,5,0,0,1,-2.5,4.330127018922194 A 5,5,0,0,1,-2.5,4.330127018922194 A 5,5,0,0,1,-5,0 Z" stroke="#001f50" stroke-width="1.5" fill="white" style="cursor: move;"></path><g transform="translate(8, 0)" text-anchor="start" stroke-width="1.25" paint-order="stroke" stroke="rgb(255, 255, 255)" stroke-linejoin="round"><g><text dy="-1" dx="0" dominant-baseline="auto" font-size="10" fill="#001f50" font-family="GenYoMinTW-SB, HiraMinProN-W6, Vegur-Bold, Helvetica, serif" style="font-synthesis: none;">&amp; 21st St</text><text dy="-11" dx="0" dominant-baseline="auto" font-size="10" fill="#001f50" font-family="GenYoMinTW-SB, HiraMinProN-W6, Vegur-Bold, Helvetica, serif" style="font-synthesis: none;">Right Of Way</text></g><g><text dy="1" dx="0" dominant-baseline="hanging" font-size="7.5" fill="#001f50" font-family="MyriadPro-Semibold, Vegur-Bold, Helvetica, sans-serif"></text></g></g></g><g id="stn_tuTzOz4dtk" transform="translate(525, 575)"><path transform="rotate(0)" d="M -5,0 A 5,5,0,0,1,-2.5,-4.330127018922194 A 5,5,0,0,1,2.5,-4.330127018922194 A 5,5,0,0,1,-2.5,4.330127018922194 A 5,5,0,0,1,-2.5,4.330127018922194 A 5,5,0,0,1,-5,0 Z" stroke="#001f50" stroke-width="1.5" fill="white" style="cursor: move;"></path><g transform="translate(8, 0)" text-anchor="start" stroke-width="1.25" paint-order="stroke" stroke="rgb(255, 255, 255)" stroke-linejoin="round"><g><text dy="-1" dx="0" dominant-baseline="auto" font-size="10" fill="#001f50" font-family="GenYoMinTW-SB, HiraMinProN-W6, Vegur-Bold, Helvetica, serif" style="font-synthesis: none;">Liberty</text></g><g><text dy="1" dx="0" dominant-baseline="hanging" font-size="7.5" fill="#001f50" font-family="MyriadPro-Semibold, Vegur-Bold, Helvetica, sans-serif"></text></g></g></g><g id="stn_OrWl608jUo" transform="translate(525, 550)"><path transform="rotate(0)" d="M -5,0 A 5,5,0,0,1,-2.5,-4.330127018922194 A 5,5,0,0,1,2.5,-4.330127018922194 A 5,5,0,0,1,-2.5,4.330127018922194 A 5,5,0,0,1,-2.5,4.330127018922194 A 5,5,0,0,1,-5,0 Z" stroke="#001f50" stroke-width="1.5" fill="white" style="cursor: move;"></path><g transform="translate(8, 0)" text-anchor="start" stroke-width="1.25" paint-order="stroke" stroke="rgb(255, 255, 255)" stroke-linejoin="round"><g><text dy="-1" dx="0" dominant-baseline="auto" font-size="10" fill="#001f50" font-family="GenYoMinTW-SB, HiraMinProN-W6, Vegur-Bold, Helvetica, serif" style="font-synthesis: none;">&amp; 18th St</text><text dy="-11" dx="0" dominant-baseline="auto" font-size="10" fill="#001f50" font-family="GenYoMinTW-SB, HiraMinProN-W6, Vegur-Bold, Helvetica, serif" style="font-synthesis: none;">Right Of Way</text></g><g><text dy="1" dx="0" dominant-baseline="hanging" font-size="7.5" fill="#001f50" font-family="MyriadPro-Semibold, Vegur-Bold, Helvetica, sans-serif"></text></g></g></g><defs><pattern id="opaque" width="5" height="5" patternUnits="userSpaceOnUse"><rect x="0" y="0" width="2.5" height="2.5" fill="black" fill-opacity="50%"></rect><rect x="2.5" y="2.5" width="2.5" height="2.5" fill="black" fill-opacity="50%"></rect></pattern></defs></svg>